<svg xmlns="http://www.w3.org/2000/symbol" >

<symbol width="22px" height="14px" viewBox="0 0 22 14" version="1.1"  id='assessment'>

    <g id="Page-1" stroke="none" stroke-width="1" fill="none" fill-rule="evenodd">
        <g   transform="translate(-837.000000, -277.000000)" fill="#54D0FF" stroke="#54D0FF" stroke-width="0.8">
            <path d="M857.3624,283.900064 C857.322933,283.82081 853.4584,278.797616 848,278.797616 C842.5416,278.797616 838.677067,283.82081 838.6376,283.900064 L838,283.421602 C838.159467,283.18277 842.143733,278 848,278 C853.856267,278 857.840533,283.18277 858,283.422669 L857.3624,283.900064 Z M852.1032,285.933732 C852.1032,283.661233 850.270933,281.867464 848.039467,281.867464 C845.808267,281.867464 843.976,283.700994 843.976,285.933732 C843.976,288.16647 845.808267,290 848.039467,290 C850.270933,290 852.063467,288.206231 852.1032,285.933732 Z M851.3072,285.933732 C851.3072,287.767262 849.833333,289.202651 848.040533,289.202651 C846.248,289.202651 844.773867,287.727768 844.773867,285.933732 C844.773867,284.139696 846.248,282.664814 848.040533,282.664814 C849.832267,282.664814 851.3072,284.139696 851.3072,285.933732 Z" id="Assessment-scheduled"></path>
        </g>
    </g>
</symbol>

<symbol width="13px" height="13px" viewBox="0 0 13 13" version="1.1"  id='back-1'>
    
    <g id="Page-1" stroke="none" stroke-width="1" fill="none" fill-rule="evenodd">
        <g   transform="translate(-90.000000, -23.000000)" fill="#54D0FF">
            <g id="Head-menu" transform="translate(70.000000, 0.000000)">
                <g id="Back-1" transform="translate(20.000000, 23.000000)">
                    <path d="M12.7355566,7.12216548 C13.0900245,6.7716371 13.087201,6.20149963 12.7327331,5.85239836 L7.01877379,0.224325169 C6.33667781,-0.45560604 5.31564878,0.563591634 5.9963348,1.24351924 L10.2894867,5.52160446 C10.430707,5.66378566 10.384106,5.77921936 10.1849833,5.77921936 L0.723057169,5.77921936 C0.323387319,5.77921936 0,6.10159115 0,6.49998176 C0,6.89837236 0.323398165,7.22074416 0.723057169,7.22074416 L10.1849833,7.22074416 C10.3855196,7.22074416 10.4335342,7.33336328 10.2894867,7.47695357 L5.9963348,11.7564803 C5.31564878,12.4364115 6.33668142,13.4556056 7.01877379,12.7756744 L12.7355566,7.12216548 Z" id="Page-1" transform="translate(6.500000, 6.500000) rotate(-180.000000) translate(-6.500000, -6.500000) "></path>
                </g>
            </g>
        </g>
    </g>
</symbol>

<symbol width="30px" height="17px" viewBox="0 0 30 17" version="1.1" id='dashboard'>
    
    <g id="Page-1" stroke="none" stroke-width="1" fill="none" fill-rule="evenodd">
        <g   transform="translate(-19.000000, -87.000000)" fill="#54D0FF" stroke="#54D0FF" stroke-width="0.8">
            <g id="Side-menu">
                <path d="M48,98.3448276 L48,98.3448276 C48,98.6544828 47.7993333,98.862069 47.5,98.862069 L41,98.862069 C40.7993333,98.862069 40.6513333,98.76 40.5493333,98.6034483 L36,89.6537931 L29.9506667,102.690345 C29.8513333,102.846207 29.7006667,102.948966 29.5493333,103 C29.5493333,103 29.5493333,103 29.5,103 C29.3486667,103 29.1513333,102.897931 29.0986667,102.741379 L26.7006667,98.862069 L20.5,98.862069 C20.2006667,98.862069 20,98.6544828 20,98.3448276 C20,98.0351724 20.2006667,97.8275862 20.5,97.8275862 L27,97.8275862 C27.1513333,97.8275862 27.3486667,97.9296552 27.4013333,98.0862069 L29.4013333,101.448276 L35.5,88.3096552 C35.5986667,88.1537931 35.75,88 35.9506667,88 C36.1513333,88 36.2993333,88.102069 36.4013333,88.2586207 L41.2993333,97.8275862 L47.5,97.8275862 C47.7993333,97.8275862 48,98.0351724 48,98.3448276 Z" id="Dashboard"></path>
            </g>
        </g>
    </g>
</symbol>

<symbol width="27px" height="27px" viewBox="0 0 27 27" version="1.1"  id='faq'>
    <g id="Page-1" stroke="none" stroke-width="1" fill="none" fill-rule="evenodd">
        <g   transform="translate(-22.000000, -160.000000)" fill="#54D0FF" stroke="#54D0FF" stroke-width="0.4">
            <g id="Side-menu">
                <path d="M48,173.5 C48,180.39877 42.3987703,186 35.5,186 C28.6012297,186 23,180.39877 23,173.5 C23,166.60123 28.6012297,161 35.5,161 C42.3970431,161 48,166.60123 48,173.5 Z M36,178 C36,179.333333 34,179.333333 34,178 C34,176.666667 36,176.666667 36,178 Z M36.7678047,170.936341 C36.7362219,170.039858 36.0182127,169.292789 35.0887187,169.264898 C34.6077805,169.235414 34.1580253,169.414312 33.7990207,169.742624 C33.4380172,170.070936 33.2585149,170.519178 33.2585149,170.997302 L32,170.997302 C32,170.159788 32.3294207,169.383234 32.9290943,168.815063 C33.5287678,168.246892 34.3375276,167.948064 35.1187024,168.007431 C36.6474702,168.0664 37.9371682,169.352156 37.9967357,170.875779 C38.0559035,172.161137 37.3063116,173.326963 36.1069644,173.804689 C35.8367115,173.924619 35.6276253,174.252931 35.6276253,174.581641 L35.6276253,175 L34.3691104,175 L34.3691104,174.581641 C34.3691104,173.714642 34.8796325,172.938089 35.6588084,172.639261 C36.3476334,172.371511 36.7973886,171.683411 36.7678047,170.936341 Z M24.359287,173.5 C24.359287,179.62111 29.3788905,184.640713 35.5,184.640713 C41.6211095,184.640713 46.640713,179.62111 46.640713,173.5 C46.640713,167.37889 41.6530623,162.359287 35.5,162.359287 C29.3469377,162.359287 24.359287,167.37889 24.359287,173.5 Z" id="FAQ"></path>
            </g>
        </g>
    </g>
</symbol>

<symbol width="18px" height="14px" viewBox="0 0 18 14" version="1.1" id='kpi'>
    <g id="Page-1" stroke="none" stroke-width="1" fill="none" fill-rule="evenodd">
        <g   transform="translate(-367.000000, -23.000000)" fill="#54D0FF" stroke="#54D0FF" stroke-width="0.1">
            <g id="Head-menu" transform="translate(70.000000, 0.000000)">
                <path d="M298.348252,36.241537 C298.485388,36.3369673 299.014341,36.6033769 299.461013,36.0307951 L302.485843,31.5455705 L305.686991,34.6788657 C305.855473,34.8418925 306.086645,34.9293702 306.321736,34.9015364 C306.552908,34.8776788 306.764489,34.7544147 306.901625,34.5595778 L312.210751,26.833699 L312.402741,29.4182698 C312.44976,30.0743532 313.057076,30.1817123 313.260822,30.1658073 C313.699657,30.1300209 314.032702,29.7443234 313.997438,29.2950057 L313.660475,24.7501372 C313.62913,24.3047957 313.245149,23.9668134 312.802395,24.0025998 L308.323922,24.3445584 C307.885087,24.3763685 307.552042,24.7660422 307.587306,25.21536 C307.618651,25.6607014 307.998714,25.9947075 308.445386,25.9628974 L310.992199,25.7680605 L306.125827,32.8458085 L302.916842,29.7045608 C302.748361,29.5375577 302.513271,29.4540562 302.282098,29.4818901 C302.047008,29.5057476 301.835427,29.632988 301.702209,29.8318012 L298.140589,35.1122783 C297.889825,35.4820708 297.983862,35.9870562 298.348252,36.241537 Z" id="Fulfillment-KPIs"></path>
            </g>
        </g>
    </g>
</symbol>


<symbol width="14px" height="17px" viewBox="0 0 14 17" version="1.1" id='home-care'>
    <g id="Page-1" stroke="none" stroke-width="1" fill="none" fill-rule="evenodd">
        <g   transform="translate(-163.000000, -327.000000)" fill="#B9C6CE">
            <path d="M176.649651,333.173018 L176.649594,333.173018 C176.851776,333.415225 176.980572,333.733336 176.99928,334.087904 L177,342.38023 C177,343.165272 176.373277,343.8 175.599783,343.8 L164.400217,343.8 C163.625986,343.8 163,343.164525 163,342.38023 L163,334.087904 C163,333.69613 163.147508,333.340814 163.405093,333.079632 C163.479326,332.967195 168.949892,327.420238 168.949892,327.420238 C169.521208,326.859921 170.423495,326.859921 170.976096,327.420238 L176.649651,333.173018 Z M173.295317,334.878118 C173.068621,334.474264 171.64745,333.121916 169.999978,335.079851 C168.269856,333.121916 166.930939,334.474264 166.70464,334.878118 C166.292574,335.624879 166.539734,336.755437 167.116705,337.300466 L170.000374,340.126667 L172.884042,337.300466 C173.460232,336.755437 173.707392,335.625267 173.295336,334.878118 L173.295317,334.878118 Z" id="Home-care-agency"></path>
        </g>
    </g>
</symbol>

<symbol width="15px" height="16px" viewBox="0 0 15 16" version="1.1" id='ic'>
    <g id="Page-1" stroke="none" stroke-width="1" fill="none" fill-rule="evenodd">
        <g   transform="translate(-162.000000, -177.000000)" fill="#B9C6CE">
            <path d="M169.5,185.181521 C171.759531,185.181521 173.59076,183.350271 173.59076,181.09076 C173.59076,178.831249 171.759511,177 169.5,177 C167.240489,177 165.40924,178.831249 165.40924,181.09076 C165.40924,183.350271 167.240489,185.181521 169.5,185.181521 Z M162,192.340351 C162,192.528911 162.152604,192.681521 162.341169,192.681521 L176.658831,192.681521 C176.84739,192.681521 177,192.528917 177,192.340351 L177,191.658831 C177,188.90084 175.155967,186.54538 171.54538,186.54538 L167.45462,186.54538 C163.844115,186.54538 162,188.90084 162,191.658831 L162,192.340351 Z" id="IC"></path>
        </g>
    </g>
</symbol>


<symbol width="20px" height="20px" viewBox="0 0 20 20" version="1.1" id='sign-out'>
    
    <g id="Page-1" stroke="none" stroke-width="1" fill="none" fill-rule="evenodd">
        <g   transform="translate(-25.000000, -242.000000)" fill="#54D0FF" fill-rule="nonzero">
            <g id="Side-menu">
                <path d="M28.0546888,250.32534 L37.0045583,250.325416 C37.522264,250.313285 38.0408995,250.723039 38.0408995,251.234667 C38.0408995,251.741294 37.5292259,252.148667 37.0115859,252.148667 L28.0520014,252.148667 L31.3797034,255.443092 C31.7458856,255.8066 31.7458856,256.392308 31.3794135,256.739195 C31.2068249,256.910058 30.9744572,257.003333 30.7346801,257.003333 C30.4958633,257.003333 30.2667436,256.914123 30.0786887,256.739383 L25.532712,252.246866 C25.2606395,251.976672 25.1074074,251.616832 25.1074074,251.242 C25.1074074,250.86314 25.2633233,250.491177 25.5330444,250.237471 L30.0814828,245.734518 C30.4461823,245.374446 31.0181088,245.374446 31.3821072,245.734805 C31.7485759,246.097609 31.7485759,246.68331 31.3821072,247.031195 L28.0546888,250.32534 Z M43.0126799,243.478175 C43.1728288,242.954351 43.7271251,242.659482 44.2589598,242.82208 C44.7871124,242.983553 45.0821461,243.549863 44.9252894,244.062918 L39.6578056,261.292081 C39.4976568,261.815904 38.9433604,262.110774 38.4115257,261.948175 C37.8833732,261.786703 37.5883394,261.220393 37.7451961,260.707338 L43.0126799,243.478175 Z" id="Sign-out"></path>
            </g>
        </g>
    </g>
</symbol>

<symbol width="21px" height="20px" viewBox="0 0 21 20" version="1.1" id='star-grey'>
   
    <g id="Page-1" stroke="none" stroke-width="1" fill="none" fill-rule="evenodd">
        <g id="Provider-chosen-4" transform="translate(-646.000000, -117.000000)" fill="#D9E2EA">
            <g id="Provide-feedback" transform="translate(510.000000, 40.000000)">
                <path d="M152.545674,96.9982974 L146.616153,94.1371414 C146.455864,94.0588235 146.270201,94.0588235 146.109508,94.1371414 L140.18039,96.9982974 L140.935525,90.1863454 C140.955662,90.0020431 140.899279,89.8173151 140.779665,89.6811101 L136.363636,84.6415255 L142.757112,83.2913935 C142.93029,83.2547885 143.079706,83.1402911 143.164683,82.9789734 L146.364442,77 L149.562589,82.9789734 C149.649178,83.1402911 149.796983,83.2547885 149.970161,83.2913935 L156.363636,84.6432281 L151.944385,89.6828126 C151.825175,89.8190176 151.768389,90.0037456 151.788928,90.188048 L152.544063,97 L152.545674,96.9982974 Z" id="Star-grey"></path>
            </g>
        </g>
    </g>
</symbol>


<symbol width="16px" height="16px" viewBox="0 0 16 16" version="1.1" id='talked-to-client'>
   
    <g id="Page-1" stroke="none" stroke-width="1" fill="none" fill-rule="evenodd">
        <g   transform="translate(-839.000000, -229.000000)" stroke="#54D0FF" stroke-width="1.6">
            <path d="M850.287826,239.185266 C850.288363,239.185749 850.28867,239.185995 850.288786,239.186067 C850.288175,239.185691 850.287571,239.185323 850.286974,239.184965 Z M845.083507,241.670914 L845.057381,241.685512 L844.632559,241.311275 C842.801748,239.698466 841.599559,238.184774 840.909498,236.805993 C840.501338,235.990468 840.331886,235.357582 840.303582,234.942918 C840.03231,233.660693 840.300314,232.516464 840.910524,231.559596 C841.177733,231.140586 841.450739,230.844582 841.641387,230.684251 C841.642854,230.68296 841.642854,230.68296 841.644322,230.681671 C842.269163,230.133395 842.98276,230.088652 843.60471,230.349295 C843.741195,230.406492 843.847815,230.467907 843.923505,230.521551 L844.022502,230.60449 L845.859431,232.415248 C846.603227,233.1758 846.596543,234.055358 846.12742,234.76755 C846.014243,234.939367 845.89836,235.066698 845.838006,235.118427 L845.409911,235.547781 C845.765143,236.181053 846.25128,236.781136 846.83944,237.341103 C847.314203,237.793109 847.825528,238.191011 848.33638,238.529323 C848.393686,238.567275 848.448416,238.602837 848.500319,238.635982 L849.148618,237.994978 L849.287476,237.885218 C849.944286,237.475224 850.605245,237.502401 851.126815,237.823089 C851.276556,237.915158 851.387023,238.013432 851.422076,238.057007 L853.312802,239.928836 C853.955272,240.737497 853.929078,241.580731 853.455337,242.22209 C853.36375,242.346081 853.270117,242.443857 853.183936,242.518222 C852.864269,242.88401 852.496137,243.168998 852.091031,243.377395 C851.316862,243.775648 850.51751,243.859893 849.805077,243.77015 C849.709136,243.758064 849.634738,243.744873 849.645112,243.744763 C848.563878,243.589897 847.477483,243.163492 846.416623,242.552143 C845.952006,242.284395 845.522686,241.998153 845.137462,241.711294 C845.119084,241.697609 845.101099,241.684145 845.083512,241.670911 Z" id="Talked-to-the-client"></path>
        </g>
    </g>
</symbol>

<symbol id='logo' viewBox="0 0 34 29" width="34px" height="29px">
    
    <g id="Page-1" stroke="none" stroke-width="1" fill="none" fill-rule="evenodd">
        <g   transform="translate(-19.000000, -19.000000)" fill="#54D0FF">
            <g id="Side-menu">
                <path d="M29.3041005,24.4641292 L29.3041005,22 C29.3041005,20.3431458 30.6472462,19 32.3041005,19 L39.3041005,19 C40.9609547,19 42.3041005,20.3431458 42.3041005,22 L42.3041005,24.4641292 L49.6148286,24.4641292 C51.2717574,24.4641292 52.6149636,25.8038983 52.6149636,27.4700657 L52.6149636,44.8170084 C52.6149636,46.4771413 51.2678815,47.8229449 49.6148286,47.8229449 L22.3042355,47.8229449 C20.6473067,47.8229449 19.3041005,46.4831758 19.3041005,44.8170084 L19.3041005,27.4700657 C19.3041005,25.8099328 20.6511826,24.4641292 22.3042355,24.4641292 L29.3041005,24.4641292 Z M31.3041005,24.4641292 L40.3041005,24.4641292 L40.3041005,22 C40.3041005,21.4477153 39.8563852,21 39.3041005,21 L32.3041005,21 C31.7518157,21 31.3041005,21.4477153 31.3041005,22 L31.3041005,24.4641292 Z M49.8211493,27.3193913 L49.8211493,25.7382464 L47.8869701,25.7382464 L47.8869701,27.3193913 L46.3058253,27.3193913 L46.3058253,29.2535704 L47.8869701,29.2535704 L47.8869701,30.8347153 L49.8211493,30.8347153 L49.8211493,29.2535704 L51.4022941,29.2535704 L51.4022941,27.3193913 L49.8211493,27.3193913 Z M24.4619115,33.0712253 L24.4619115,33.1244993 L27.1801838,33.1244993 L27.1801838,33.0605705 C27.1801838,31.6434832 28.2383684,30.8363597 29.5975045,30.8363597 C30.8789757,30.8363597 31.665333,31.5369353 31.665333,32.7728912 C31.665333,33.7744416 31.1702192,34.573551 29.1994718,36.6831997 L24.6269495,41.5950588 L24.6269495,43.8432198 L34.7330975,43.8432198 L34.7330975,41.1688671 L28.5975686,41.1688671 L28.5975686,40.9770808 L31.2770084,38.1748706 C33.7040372,35.6709945 34.529227,34.2325976 34.529227,32.5597953 C34.529227,29.917407 32.4905228,28.074128 29.5683802,28.074128 C26.5394482,28.074128 24.4619115,30.0985384 24.4619115,33.0712253 Z M45.1385991,41.1279193 L46.8124262,41.1279193 L46.8124262,38.3928392 L45.1385991,38.3928392 L45.1385991,28.074128 L42.293093,28.074128 L35.6371688,38.1894035 L35.6371688,41.1279193 L42.4801678,41.1279193 L42.4801678,43.7160736 L45.1385991,43.7160736 L45.1385991,41.1279193 Z M42.4801678,32.255862 L42.4801678,38.3928392 L38.3448303,38.3928392 L42.4801678,32.255862 Z" id="TrueCare24_logo"></path>
            </g>
        </g>
    </g>

</symbol>
</svg>